<svg width="256" height="256" viewBox="0 0 256 256" fill="none" xmlns="http://www.w3.org/2000/svg">
<rect width="256" height="256" fill="#FFE200"/>
<path d="M52.125 247.687C48.5656 247.687 45.582 246.484 43.1742 244.076C40.7664 241.668 39.5625 238.684 39.5625 235.125V209.372C35.7938 205.184 32.7578 200.526 30.4547 195.396C28.1516 190.266 27 184.666 27 178.594V59.25C27 41.8719 35.0609 29.1523 51.1828 21.0914C67.3047 13.0305 92.7438 9 127.5 9C163.513 9 189.266 12.8734 204.759 20.6203C220.253 28.3672 228 41.2437 228 59.25V178.594C228 184.666 226.848 190.266 224.545 195.396C222.242 200.526 219.206 205.184 215.438 209.372V235.125C215.438 238.684 214.234 241.668 211.826 244.076C209.418 246.484 206.434 247.687 202.875 247.687H190.313C186.753 247.687 183.77 246.484 181.362 244.076C178.954 241.668 177.75 238.684 177.75 235.125V222.562H77.25V235.125C77.25 238.684 76.0461 241.668 73.6383 244.076C71.2305 246.484 68.2469 247.687 64.6875 247.687H52.125ZM52.125 109.5H202.875V71.8125H52.125V109.5ZM83.5313 184.875C88.7656 184.875 93.2148 183.043 96.8789 179.379C100.543 175.715 102.375 171.266 102.375 166.031C102.375 160.797 100.543 156.348 96.8789 152.684C93.2148 149.02 88.7656 147.187 83.5313 147.187C78.2969 147.187 73.8477 149.02 70.1836 152.684C66.5195 156.348 64.6875 160.797 64.6875 166.031C64.6875 171.266 66.5195 175.715 70.1836 179.379C73.8477 183.043 78.2969 184.875 83.5313 184.875ZM171.469 184.875C176.703 184.875 181.152 183.043 184.816 179.379C188.48 175.715 190.313 171.266 190.313 166.031C190.313 160.797 188.48 156.348 184.816 152.684C181.152 149.02 176.703 147.187 171.469 147.187C166.234 147.187 161.785 149.02 158.121 152.684C154.457 156.348 152.625 160.797 152.625 166.031C152.625 171.266 154.457 175.715 158.121 179.379C161.785 183.043 166.234 184.875 171.469 184.875ZM57.7781 46.6875H198.478C195.338 43.1281 188.585 40.1445 178.221 37.7367C167.857 35.3289 151.159 34.125 128.128 34.125C105.725 34.125 89.3414 35.4336 78.9774 38.0508C68.6133 40.668 61.5469 43.5469 57.7781 46.6875ZM77.25 197.437H177.75C184.659 197.437 190.574 194.977 195.495 190.057C200.415 185.137 202.875 179.222 202.875 172.312V134.625H52.125V172.312C52.125 179.222 54.5852 185.137 59.5055 190.057C64.4258 194.977 70.3406 197.437 77.25 197.437Z" fill="#000C53"/>
</svg>
